<svg width="16" height="16" viewBox="0 0 16 16" fill="none" xmlns="http://www.w3.org/2000/svg">
<path d="M6.49955 4.93055C6.61952 4.93055 6.73949 4.8848 6.83099 4.79324L7.08098 4.54324C7.26405 4.36018 7.26405 4.0634 7.08098 3.88034C6.89795 3.69728 6.60114 3.69728 6.41808 3.88034L6.16808 4.13034C5.87193 4.42652 6.08574 4.93055 6.49955 4.93055Z" fill="#858585"/>
<path d="M8.49955 5.18055C8.61952 5.18055 8.73949 5.1348 8.83099 5.04324L9.08099 4.79324C9.26406 4.61018 9.26406 4.3134 9.08099 4.13034C8.89796 3.94728 8.60115 3.94728 8.41808 4.13034L8.16808 4.38034C7.87193 4.67652 8.08574 5.18055 8.49955 5.18055Z" fill="#858585"/>
<path d="M6.49955 6.93055C6.61952 6.93055 6.73949 6.8848 6.83099 6.79324L7.08098 6.54324C7.26405 6.36018 7.26405 6.0634 7.08098 5.88034C6.89795 5.69728 6.60114 5.69728 6.41808 5.88034L6.16808 6.13034C5.87193 6.42652 6.08574 6.93055 6.49955 6.93055Z" fill="#858585"/>
<path d="M0.46875 8.93056H15.5312C15.7901 8.93056 16 8.72069 16 8.46181C16 8.20294 15.7901 7.99306 15.5312 7.99306H14.9688V2.132C14.9688 0.9545 14.0161 0 12.837 0C12.3446 0 11.8642 0.172156 11.4844 0.483719L11.19 0.72525C10.5313 0.337531 9.66753 0.426094 9.1025 0.991125L8.39541 1.69822C8.21234 1.88128 8.21234 2.17806 8.39541 2.36112L10.1632 4.12891C10.3462 4.31197 10.643 4.312 10.8261 4.12891C11.5767 3.37828 11.5301 3.42181 11.5332 3.42181C12.078 2.877 12.1799 2.05437 11.8388 1.40566L12.0791 1.20853C12.2907 1.03491 12.5581 0.938656 12.8318 0.937531C13.4723 0.931781 14.0312 1.4525 14.0312 2.132V7.99309C13.551 7.99309 0.944469 7.99309 0.46875 7.99309C0.209875 7.99309 0 8.20297 0 8.46184C0 8.72072 0.209875 8.93056 0.46875 8.93056Z" fill="#858585"/>
<path d="M1.2793 9.86804L1.47902 10.9664C1.77623 12.6012 2.98927 13.8708 4.5313 14.2857V14.9618C4.5313 15.2207 4.74117 15.4306 5.00005 15.4306C5.25892 15.4306 5.4688 15.2207 5.4688 14.9618V14.4273C5.61511 14.4329 10.4018 14.4322 10.5313 14.4273V14.9618C10.5313 15.2207 10.7412 15.4306 11 15.4306C11.2589 15.4306 11.4688 15.2207 11.4688 14.9618V14.2857C13.0108 13.8708 14.2239 12.6012 14.5211 10.9665L14.7208 9.86807H1.2793V9.86804Z" fill="#858585"/>
</svg>
