<svg width="10" height="12" viewBox="0 0 10 12" fill="none" xmlns="http://www.w3.org/2000/svg">
<path d="M5 12L1.46445 8.48526C0.76519 7.79011 0.288992 6.90444 0.0960713 5.94025C-0.0968497 4.97606 0.00217047 3.97664 0.38061 3.0684C0.75905 2.16015 1.39991 1.38386 2.22216 0.837687C3.0444 0.291517 4.0111 0 5 0C5.9889 0 6.9556 0.291517 7.77784 0.837687C8.60009 1.38386 9.24095 2.16015 9.61939 3.0684C9.99783 3.97664 10.0969 4.97606 9.90393 5.94025C9.71101 6.90444 9.23481 7.79011 8.53555 8.48526L5 12ZM7.75 7.70433C8.29383 7.16364 8.66417 6.47479 8.81419 5.72487C8.96421 4.97495 8.88718 4.19765 8.59283 3.49126C8.29847 2.78486 7.80002 2.1811 7.16051 1.75632C6.52099 1.33153 5.76913 1.10481 5 1.10481C4.23087 1.10481 3.47901 1.33153 2.83949 1.75632C2.19998 2.1811 1.70153 2.78486 1.40717 3.49126C1.11282 4.19765 1.03579 4.97495 1.18581 5.72487C1.33583 6.47479 1.70617 7.16364 2.25 7.70433L5 10.4381L7.75 7.70433ZM5 6.07509C4.70532 6.07509 4.4227 5.95871 4.21433 5.75157C4.00595 5.54442 3.88889 5.26347 3.88889 4.97052C3.88889 4.67757 4.00595 4.39662 4.21433 4.18947C4.4227 3.98232 4.70532 3.86595 5 3.86595C5.29468 3.86595 5.5773 3.98232 5.78567 4.18947C5.99405 4.39662 6.11111 4.67757 6.11111 4.97052C6.11111 5.26347 5.99405 5.54442 5.78567 5.75157C5.5773 5.95871 5.29468 6.07509 5 6.07509Z" fill="white"/>
</svg>
